<?xml version="1.0" encoding="UTF-8" standalone="no"?>
<!DOCTYPE svg PUBLIC "-//W3C//DTD SVG 1.1//EN" "http://www.w3.org/Graphics/SVG/1.1/DTD/svg11.dtd">
<svg width="100%" height="100%" viewBox="0 0 3275 3275" version="1.1" xmlns="http://www.w3.org/2000/svg" xmlns:xlink="http://www.w3.org/1999/xlink" xml:space="preserve" xmlns:serif="http://www.serif.com/" style="fill-rule:evenodd;clip-rule:evenodd;stroke-linejoin:round;stroke-miterlimit:2;">
    <g transform="matrix(1,0,0,1,-13688,-14966)">
        <g id="Artboard2" transform="matrix(1,0,0,1,-0.24238,-0.322728)">
            <rect x="13688.2" y="14966.3" width="3274.19" height="3274.19" style="fill:none;"/>
            <clipPath id="_clip1">
                <rect x="13688.2" y="14966.3" width="3274.19" height="3274.19"/>
            </clipPath>
            <g clip-path="url(#_clip1)">
                <g transform="matrix(545.698,0,0,396.871,-608764,-2.20198e+06)">
                    <path d="M1144.4,5594.31L1144.4,5593.56L1142.15,5593.56L1142.15,5592.81L1140.65,5592.81L1140.65,5592.06L1141.4,5592.06L1141.4,5589.06L1140.65,5589.06L1140.65,5588.31L1141.4,5588.31L1141.4,5587.56L1142.15,5587.56L1142.15,5586.81L1142.9,5586.81L1142.9,5586.06L1144.4,5586.06L1144.4,5586.81L1145.15,5586.81L1145.15,5587.56L1145.9,5587.56L1145.9,5588.31L1146.65,5588.31L1146.65,5589.06L1145.9,5589.06L1145.9,5590.56L1145.15,5590.56L1145.15,5589.06L1144.4,5589.06L1144.4,5588.31L1143.65,5588.31L1143.65,5587.56L1142.9,5587.56L1142.9,5592.06L1144.4,5592.06L1144.4,5592.81L1145.9,5592.81L1145.9,5593.56L1145.15,5593.56L1145.15,5594.31L1144.4,5594.31ZM1145.9,5592.81L1145.9,5592.06L1146.65,5592.06L1146.65,5592.81L1145.9,5592.81Z" style="fill:rgb(147,146,217);fill-rule:nonzero;"/>
                </g>
            </g>
        </g>
    </g>
</svg>
