<?xml version="1.0" encoding="UTF-8" standalone="no"?>
<!DOCTYPE svg PUBLIC "-//W3C//DTD SVG 1.1//EN" "http://www.w3.org/Graphics/SVG/1.1/DTD/svg11.dtd">
<svg width="100%" height="100%" viewBox="0 0 512 512" version="1.1" xmlns="http://www.w3.org/2000/svg" xmlns:xlink="http://www.w3.org/1999/xlink" xml:space="preserve" xmlns:serif="http://www.serif.com/" style="fill-rule:evenodd;clip-rule:evenodd;stroke-linejoin:round;stroke-miterlimit:2;">
    <g id="Artboard1" transform="matrix(0.898066,0,0,0.898066,-139.369,-533.422)">
        <rect x="155.188" y="593.967" width="570.114" height="570.114" style="fill:none;"/>
        <clipPath id="_clip1">
            <rect x="155.188" y="593.967" width="570.114" height="570.114"/>
        </clipPath>
        <g clip-path="url(#_clip1)">
            <g transform="matrix(-3.13597,-3.84045e-16,3.84045e-16,-3.13597,1516.35,2904.43)">
                <circle cx="343.15" cy="645.863" r="90.899"/>
                <clipPath id="_clip2">
                    <circle cx="343.15" cy="645.863" r="90.899"/>
                </clipPath>
                <g clip-path="url(#_clip2)">
                    <g transform="matrix(4.58786,8.63338e-32,8.63338e-32,4.58786,118.728,417.516)">
                        <path d="M90,47.5L90,50L92.5,50L92.5,52.5L90,52.5L90,50L87.5,50L87.5,52.5L85,52.5L85,50L87.5,50L87.5,47.5L85,47.5L85,45L82.5,45L82.5,47.5L80,47.5L80,50L82.5,50L82.5,52.5L80,52.5L80,50L77.5,50L77.5,52.5L75,52.5L75,50L77.5,50L77.5,47.5L75,47.5L75,45L72.5,45L72.5,47.5L70,47.5L70,50L72.5,50L72.5,52.5L70,52.5L70,50L67.5,50L67.5,52.5L65,52.5L65,50L67.5,50L67.5,47.5L65,47.5L65,45L62.5,45L62.5,47.5L60,47.5L60,50L62.5,50L62.5,52.5L60,52.5L60,50L57.5,50L57.5,52.5L55,52.5L55,50L57.5,50L57.5,47.5L55,47.5L55,45L52.5,45L52.5,47.5L50,47.5L50,50L52.5,50L52.5,52.5L50,52.5L50,50L47.5,50L47.5,52.5L45,52.5L45,50L47.5,50L47.5,47.5L45,47.5L45,45L42.5,45L42.5,47.5L40,47.5L40,50L42.5,50L42.5,52.5L40,52.5L40,50L37.5,50L37.5,52.5L35,52.5L35,50L37.5,50L37.5,47.5L35,47.5L35,45L32.5,45L32.5,47.5L30,47.5L30,50L32.5,50L32.5,52.5L30,52.5L30,50L27.5,50L27.5,52.5L25,52.5L25,50L27.5,50L27.5,47.5L25,47.5L25,45L22.5,45L22.5,47.5L20,47.5L20,50L22.5,50L22.5,52.5L20,52.5L20,50L17.5,50L17.5,52.5L15,52.5L15,50L17.5,50L17.5,47.5L15,47.5L15,45L12.5,45L12.5,47.5L10,47.5L10,50L12.5,50L12.5,52.5L10,52.5L10,50L7.5,50L7.5,52.5L5,52.5L5,55L7.5,55L7.5,57.5L5,57.5L5,60L7.5,60L7.5,62.5L5,62.5L5,65L7.5,65L7.5,67.5L5,67.5L5,70L7.5,70L7.5,72.5L5,72.5L5,95L95,95L95,45L92.5,45L92.5,47.5L90,47.5ZM12.5,77.5L10,77.5L10,75L12.5,75L12.5,77.5ZM12.5,67.5L10,67.5L10,65L12.5,65L12.5,67.5ZM12.5,62.5L10,62.5L10,60L12.5,60L12.5,62.5ZM12.5,57.5L10,57.5L10,55L12.5,55L12.5,57.5ZM17.5,72.5L15,72.5L15,70L17.5,70L17.5,72.5ZM17.5,67.5L15,67.5L15,65L17.5,65L17.5,67.5ZM17.5,62.5L15,62.5L15,60L17.5,60L17.5,62.5ZM17.5,57.5L15,57.5L15,55L17.5,55L17.5,57.5ZM22.5,77.5L20,77.5L20,75L22.5,75L22.5,77.5ZM22.5,67.5L20,67.5L20,65L22.5,65L22.5,67.5ZM22.5,62.5L20,62.5L20,60L22.5,60L22.5,62.5ZM22.5,57.5L20,57.5L20,55L22.5,55L22.5,57.5ZM27.5,72.5L25,72.5L25,70L27.5,70L27.5,72.5ZM27.5,67.5L25,67.5L25,65L27.5,65L27.5,67.5ZM27.5,62.5L25,62.5L25,60L27.5,60L27.5,62.5ZM27.5,57.5L25,57.5L25,55L27.5,55L27.5,57.5ZM32.5,77.5L30,77.5L30,75L32.5,75L32.5,77.5ZM32.5,67.5L30,67.5L30,65L32.5,65L32.5,67.5ZM32.5,62.5L30,62.5L30,60L32.5,60L32.5,62.5ZM32.5,57.5L30,57.5L30,55L32.5,55L32.5,57.5ZM37.5,72.5L35,72.5L35,70L37.5,70L37.5,72.5ZM37.5,67.5L35,67.5L35,65L37.5,65L37.5,67.5ZM37.5,62.5L35,62.5L35,60L37.5,60L37.5,62.5ZM37.5,57.5L35,57.5L35,55L37.5,55L37.5,57.5ZM42.5,77.5L40,77.5L40,75L42.5,75L42.5,77.5ZM42.5,67.5L40,67.5L40,65L42.5,65L42.5,67.5ZM42.5,62.5L40,62.5L40,60L42.5,60L42.5,62.5ZM42.5,57.5L40,57.5L40,55L42.5,55L42.5,57.5ZM47.5,72.5L45,72.5L45,70L47.5,70L47.5,72.5ZM47.5,67.5L45,67.5L45,65L47.5,65L47.5,67.5ZM47.5,62.5L45,62.5L45,60L47.5,60L47.5,62.5ZM47.5,57.5L45,57.5L45,55L47.5,55L47.5,57.5ZM52.5,77.5L50,77.5L50,75L52.5,75L52.5,77.5ZM52.5,67.5L50,67.5L50,65L52.5,65L52.5,67.5ZM52.5,62.5L50,62.5L50,60L52.5,60L52.5,62.5ZM52.5,57.5L50,57.5L50,55L52.5,55L52.5,57.5ZM57.5,72.5L55,72.5L55,70L57.5,70L57.5,72.5ZM57.5,67.5L55,67.5L55,65L57.5,65L57.5,67.5ZM57.5,62.5L55,62.5L55,60L57.5,60L57.5,62.5ZM57.5,57.5L55,57.5L55,55L57.5,55L57.5,57.5ZM62.5,77.5L60,77.5L60,75L62.5,75L62.5,77.5ZM62.5,67.5L60,67.5L60,65L62.5,65L62.5,67.5ZM62.5,62.5L60,62.5L60,60L62.5,60L62.5,62.5ZM62.5,57.5L60,57.5L60,55L62.5,55L62.5,57.5ZM67.5,72.5L65,72.5L65,70L67.5,70L67.5,72.5ZM67.5,67.5L65,67.5L65,65L67.5,65L67.5,67.5ZM67.5,62.5L65,62.5L65,60L67.5,60L67.5,62.5ZM67.5,57.5L65,57.5L65,55L67.5,55L67.5,57.5ZM72.5,77.5L70,77.5L70,75L72.5,75L72.5,77.5ZM72.5,67.5L70,67.5L70,65L72.5,65L72.5,67.5ZM72.5,62.5L70,62.5L70,60L72.5,60L72.5,62.5ZM72.5,57.5L70,57.5L70,55L72.5,55L72.5,57.5ZM77.5,72.5L75,72.5L75,70L77.5,70L77.5,72.5ZM77.5,67.5L75,67.5L75,65L77.5,65L77.5,67.5ZM77.5,62.5L75,62.5L75,60L77.5,60L77.5,62.5ZM77.5,57.5L75,57.5L75,55L77.5,55L77.5,57.5ZM82.5,77.5L80,77.5L80,75L82.5,75L82.5,77.5ZM82.5,67.5L80,67.5L80,65L82.5,65L82.5,67.5ZM82.5,62.5L80,62.5L80,60L82.5,60L82.5,62.5ZM82.5,57.5L80,57.5L80,55L82.5,55L82.5,57.5ZM87.5,72.5L85,72.5L85,70L87.5,70L87.5,72.5ZM87.5,67.5L85,67.5L85,65L87.5,65L87.5,67.5ZM87.5,62.5L85,62.5L85,60L87.5,60L87.5,62.5ZM87.5,57.5L85,57.5L85,55L87.5,55L87.5,57.5ZM92.5,77.5L90,77.5L90,75L92.5,75L92.5,77.5ZM92.5,67.5L90,67.5L90,65L92.5,65L92.5,67.5ZM92.5,62.5L90,62.5L90,60L92.5,60L92.5,62.5ZM92.5,57.5L90,57.5L90,55L92.5,55L92.5,57.5Z" style="fill:rgb(255,113,56);fill-rule:nonzero;"/>
                        <rect x="67.5" y="40" width="2.5" height="2.5" style="fill:rgb(255,113,56);"/>
                        <rect x="65" y="42.5" width="2.5" height="2.5" style="fill:rgb(255,113,56);"/>
                        <rect x="60" y="42.5" width="2.5" height="2.5" style="fill:rgb(255,113,56);"/>
                        <rect x="55" y="42.5" width="2.5" height="2.5" style="fill:rgb(255,113,56);"/>
                        <rect x="57.5" y="40" width="2.5" height="2.5" style="fill:rgb(255,113,56);"/>
                        <rect x="62.5" y="40" width="2.5" height="2.5" style="fill:rgb(255,113,56);"/>
                        <rect x="52.5" y="40" width="2.5" height="2.5" style="fill:rgb(255,113,56);"/>
                        <rect x="50" y="42.5" width="2.5" height="2.5" style="fill:rgb(255,113,56);"/>
                        <rect x="45" y="42.5" width="2.5" height="2.5" style="fill:rgb(255,113,56);"/>
                        <rect x="40" y="42.5" width="2.5" height="2.5" style="fill:rgb(255,113,56);"/>
                        <rect x="42.5" y="40" width="2.5" height="2.5" style="fill:rgb(255,113,56);"/>
                        <rect x="47.5" y="40" width="2.5" height="2.5" style="fill:rgb(255,113,56);"/>
                        <rect x="37.5" y="40" width="2.5" height="2.5" style="fill:rgb(255,113,56);"/>
                        <rect x="35" y="42.5" width="2.5" height="2.5" style="fill:rgb(255,113,56);"/>
                        <rect x="30" y="42.5" width="2.5" height="2.5" style="fill:rgb(255,113,56);"/>
                        <rect x="27.5" y="40" width="2.5" height="2.5" style="fill:rgb(255,113,56);"/>
                        <rect x="32.5" y="40" width="2.5" height="2.5" style="fill:rgb(255,113,56);"/>
                        <rect x="65" y="37.5" width="2.5" height="2.5" style="fill:rgb(255,113,56);"/>
                        <rect x="55" y="37.5" width="2.5" height="2.5" style="fill:rgb(255,113,56);"/>
                        <rect x="60" y="37.5" width="2.5" height="2.5" style="fill:rgb(255,113,56);"/>
                        <rect x="50" y="37.5" width="2.5" height="2.5" style="fill:rgb(255,113,56);"/>
                        <rect x="40" y="37.5" width="2.5" height="2.5" style="fill:rgb(255,113,56);"/>
                        <rect x="45" y="37.5" width="2.5" height="2.5" style="fill:rgb(255,113,56);"/>
                        <rect x="35" y="37.5" width="2.5" height="2.5" style="fill:rgb(255,113,56);"/>
                        <rect x="30" y="37.5" width="2.5" height="2.5" style="fill:rgb(255,113,56);"/>
                        <rect x="62.5" y="35" width="2.5" height="2.5" style="fill:rgb(255,113,56);"/>
                        <rect x="52.5" y="35" width="2.5" height="2.5" style="fill:rgb(255,113,56);"/>
                        <rect x="42.5" y="35" width="2.5" height="2.5" style="fill:rgb(255,113,56);"/>
                        <rect x="32.5" y="35" width="2.5" height="2.5" style="fill:rgb(255,113,56);"/>
                        <rect x="67.5" y="30" width="2.5" height="2.5" style="fill:rgb(255,113,56);"/>
                        <rect x="57.5" y="30" width="2.5" height="2.5" style="fill:rgb(255,113,56);"/>
                        <rect x="47.5" y="30" width="2.5" height="2.5" style="fill:rgb(255,113,56);"/>
                        <rect x="37.5" y="30" width="2.5" height="2.5" style="fill:rgb(255,113,56);"/>
                        <rect x="27.5" y="30" width="2.5" height="2.5" style="fill:rgb(255,113,56);"/>
                        <rect x="60" y="32.5" width="2.5" height="2.5" style="fill:rgb(255,113,56);"/>
                        <rect x="50" y="32.5" width="2.5" height="2.5" style="fill:rgb(255,113,56);"/>
                        <rect x="40" y="32.5" width="2.5" height="2.5" style="fill:rgb(255,113,56);"/>
                        <rect x="30" y="32.5" width="2.5" height="2.5" style="fill:rgb(255,113,56);"/>
                        <rect x="65" y="32.5" width="2.5" height="2.5" style="fill:rgb(255,113,56);"/>
                        <rect x="55" y="32.5" width="2.5" height="2.5" style="fill:rgb(255,113,56);"/>
                        <rect x="45" y="32.5" width="2.5" height="2.5" style="fill:rgb(255,113,56);"/>
                        <rect x="35" y="32.5" width="2.5" height="2.5" style="fill:rgb(255,113,56);"/>
                        <rect x="60" y="27.5" width="2.5" height="2.5" style="fill:rgb(255,113,56);"/>
                        <rect x="50" y="27.5" width="2.5" height="2.5" style="fill:rgb(255,113,56);"/>
                        <rect x="40" y="27.5" width="2.5" height="2.5" style="fill:rgb(255,113,56);"/>
                        <rect x="30" y="27.5" width="2.5" height="2.5" style="fill:rgb(255,113,56);"/>
                        <rect x="65" y="27.5" width="2.5" height="2.5" style="fill:rgb(255,113,56);"/>
                        <rect x="55" y="27.5" width="2.5" height="2.5" style="fill:rgb(255,113,56);"/>
                        <rect x="45" y="27.5" width="2.5" height="2.5" style="fill:rgb(255,113,56);"/>
                        <rect x="35" y="27.5" width="2.5" height="2.5" style="fill:rgb(255,113,56);"/>
                    </g>
                </g>
            </g>
        </g>
    </g>
</svg>
